<?xml version="1.0" encoding="UTF-8"?>
<svg id="Layer_1" data-name="Layer 1" xmlns="http://www.w3.org/2000/svg" viewBox="0 0 1000 1000">
  <defs>
    <style>
      .cls-1 {
        fill: #2a2220;
      }
    </style>
  </defs>
  <g id="dark_letters" data-name="dark letters">
    <path class="cls-1" d="M120.54,161.17c0-18.97,15.67-35.47,34.65-35.47s34.65,16.5,34.65,35.47-16.5,33.82-34.65,33.82-34.65-15.67-34.65-33.82ZM136.22,316.25h37.95v395.96h-37.95v-395.96Z"/>
    <path class="cls-1" d="M319.35,712.21V116.62h37.95v595.59h-37.95Z"/>
    <path class="cls-1" d="M459.58,849.14h37.12c32.17,0,71.77,0,92.39-56.09l19.8-53.62-160.86-423.18h39.6l139.41,371.21,133.64-371.21h38.77l-175.71,487.52c-20.62,56.92-56.92,80.84-110.54,80.84-21.45,0-37.12-1.65-53.62-4.95v-30.52Z"/>
    <path class="cls-1" d="M799.44,667.66c0-24.75,20.62-45.37,45.37-45.37s45.37,20.62,45.37,45.37-20.62,44.55-45.37,44.55-45.37-20.62-45.37-44.55Z"/>
    <path class="cls-1" d="M109.82,160.75c0-24.75,20.62-45.37,45.37-45.37s45.37,20.62,45.37,45.37-20.62,44.55-45.37,44.55-45.37-20.62-45.37-44.55Z"/>
  </g>
</svg>