<?xml version="1.0" encoding="UTF-8"?>
<svg id="Layer_1" data-name="Layer 1" xmlns="http://www.w3.org/2000/svg" viewBox="0 0 1000 1000">
  <defs>
    <style>
      .cls-1 {
        fill: #fff;
      }
    </style>
  </defs>
  <g id="white_letters" data-name="white letters">
    <path class="cls-1" d="M196.43,228.93c0-15.18,12.54-28.38,27.72-28.38s27.72,13.2,27.72,28.38-13.2,27.06-27.72,27.06-27.72-12.54-27.72-27.06ZM208.97,353h30.36v316.77h-30.36v-316.77Z"/>
    <path class="cls-1" d="M355.48,669.77V193.3h30.36v476.47h-30.36Z"/>
    <path class="cls-1" d="M467.66,779.32h29.7c25.74,0,57.41,0,73.91-44.88l15.84-42.9-128.69-338.54h31.68l111.53,296.97,106.91-296.97h31.02l-140.57,390.02c-16.5,45.54-45.54,64.67-88.43,64.67-17.16,0-29.7-1.32-42.9-3.96v-24.42Z"/>
    <path class="cls-1" d="M739.55,634.13c0-19.8,16.5-36.3,36.3-36.3s36.3,16.5,36.3,36.3-16.5,35.64-36.3,35.64-36.3-16.5-36.3-35.64Z"/>
    <path class="cls-1" d="M187.86,228.6c0-19.8,16.5-36.3,36.3-36.3s36.3,16.5,36.3,36.3-16.5,35.64-36.3,35.64-36.3-16.5-36.3-35.64Z"/>
  </g>
</svg>