<?xml version="1.0" encoding="UTF-8"?>
<svg id="Layer_1" data-name="Layer 1" xmlns="http://www.w3.org/2000/svg" viewBox="0 0 1000 1000">
  <defs>
    <style>
      .cls-1 {
        fill: #ade8f9;
      }

      .cls-2 {
        fill: #2a2220;
      }
    </style>
  </defs>
  <g id="dark_letters" data-name="dark letters">
    <path class="cls-2" d="M102.58,424.6c0-4.21,3.48-7.88,7.69-7.88s7.7,3.66,7.7,7.88-3.66,7.51-7.7,7.51-7.69-3.48-7.69-7.51ZM106.06,459.05h8.43v87.95h-8.43v-87.95Z"/>
    <path class="cls-2" d="M143.07,547v-132.29h8.43v132.29h-8.43Z"/>
    <path class="cls-2" d="M217.09,456.85c25.1,0,43.61,19.61,43.61,46.17s-18.51,46.17-43.61,46.17-43.61-19.61-43.61-46.17,18.51-46.17,43.61-46.17ZM217.09,541.5c20.52,0,35-15.94,35-38.48s-14.47-38.48-35-38.48-35,15.94-35,38.48,14.47,38.48,35,38.48Z"/>
    <path class="cls-2" d="M266.19,459.05h8.98l26.2,63.95c1.83,4.58,3.66,9.16,5.68,15.39,1.83-6.23,3.67-10.44,5.68-15.39l26.2-63.95h8.79l-36.46,87.95h-8.61l-36.46-87.95Z"/>
    <path class="cls-2" d="M353.21,503.21c0-27.48,16.67-46.36,41.23-46.36,22.9,0,38.66,16.49,38.66,40.49v5.86h-71.46c.73,24,13.19,38.29,33.9,38.29,15.57,0,25.47-6.78,28.95-19.79h8.61c-5.13,18.14-17.77,27.48-37.56,27.48-25.47,0-42.32-18.32-42.32-45.99ZM361.83,496.24h62.66c0-19.06-11.91-31.7-30.05-31.7s-30.6,12.46-32.61,31.7Z"/>
    <path class="cls-2" d="M442.99,577.41h8.25c7.15,0,15.94,0,20.52-12.46l4.4-11.91-35.73-93.99h8.79l30.96,82.45,29.68-82.45h8.61l-39.03,108.29c-4.58,12.64-12.64,17.96-24.55,17.96-4.76,0-8.25-.37-11.91-1.1v-6.78Z"/>
    <path class="cls-2" d="M568.49,456.85c25.1,0,43.61,19.61,43.61,46.17s-18.51,46.17-43.61,46.17-43.61-19.61-43.61-46.17,18.51-46.17,43.61-46.17ZM568.49,541.5c20.52,0,35-15.94,35-38.48s-14.47-38.48-35-38.48-35,15.94-35,38.48,14.47,38.48,35,38.48Z"/>
    <path class="cls-2" d="M702.24,459.05v87.95h-6.78l-1.65-16.31c-4.76,10.99-17.22,18.51-31.88,18.51-21.07,0-31.88-14.47-31.88-35.91v-54.42h8.61v52.22c0,22.54,10.63,30.42,25.29,30.42,18.51,0,29.87-12.83,29.87-35.55v-46.91h8.43Z"/>
    <path class="cls-2" d="M737.59,547v-80.62h-17.77v-7.33h17.77v-27.85h8.43v27.85h17.77v7.33h-17.77v80.62h-8.43Z"/>
    <path class="cls-2" d="M781.38,546.81v-132.11h8.43v61.38c5.68-11.36,16.67-19.24,32.25-19.24,23.64,0,33.35,14.66,33.35,36.65v53.5h-8.43v-51.85c0-23.27-10.44-30.6-25.47-30.6-21.07,0-31.7,16.12-31.7,34.63v47.64h-8.43Z"/>
    <path class="cls-1" d="M880.04,537.1c0-5.5,4.58-10.08,10.08-10.08s10.08,4.58,10.08,10.08-4.58,9.89-10.08,9.89-10.08-4.58-10.08-9.89Z"/>
    <path class="cls-1" d="M100.2,424.51c0-5.5,4.58-10.08,10.08-10.08s10.08,4.58,10.08,10.08-4.58,9.89-10.08,9.89-10.08-4.58-10.08-9.89Z"/>
  </g>
</svg>