<?xml version="1.0" encoding="UTF-8"?>
<svg xmlns="http://www.w3.org/2000/svg" version="1.1" viewBox="0 0 1065.96 523.43">
  <defs>
    <style>
      .cls-1 {
        fill: #fff;
      }

      .cls-2 {
        fill: #ffa21a;
        fill-rule: evenodd;
      }
    </style>
  </defs>
  <!-- Generator: Adobe Illustrator 28.6.0, SVG Export Plug-In . SVG Version: 1.2.0 Build 709)  -->
  <g>
    <g id="Layer_1">
      <g>
        <g>
          <path class="cls-1" d="M720.64,237.02c0,17.7-4.32,32.92-12.95,45.65-8.63,12.74-20.3,22.23-34.99,28.49-9.55,4.1-20.43,7.09-32.66,8.98-12.23,1.89-26.92,2.83-44.08,2.83h-14.32c.11-8.31.24-23.75.4-46.32.16-22.56.24-49.71.24-81.45,0-19.43-.06-38.27-.16-56.52-.11-18.25-.27-36.87-.48-55.87h25.42l-.48,74.7c21.99.22,39.6,2.19,52.85,5.91,13.25,3.72,24.27,8.77,33.06,15.14,9.11,6.58,16.09,14.81,20.91,24.69,4.83,9.87,7.24,21.13,7.24,33.75ZM694.9,237.67c0-13.05-3.68-24.01-11.02-32.85-7.35-8.85-16.81-15.27-28.4-19.26-6.01-2.05-12.5-3.64-19.47-4.78-6.97-1.13-14.16-1.7-21.56-1.7h-7.88c0,2.38-.03,10.98-.08,25.81-.06,14.83-.08,27.05-.08,36.66,0,18.02.05,30.75.16,38.19.11,7.44.16,15,.16,22.66,11.8,0,22.58-.89,32.34-2.67,9.76-1.78,18.18-4.56,25.26-8.34,10.3-5.5,17.96-12.76,23.01-21.77,5.04-9.01,7.56-19.66,7.56-31.96Z"/>
          <path class="cls-1" d="M522.25,322.54c-.65,0-2.69.03-6.13.08-3.44.05-6.18.08-8.22.08-20.32,0-36.23-.89-47.73-2.68-11.5-1.78-22.74-5.33-33.7-10.63-14.3-6.92-25.16-16.12-32.57-27.58-7.42-11.46-11.13-24.23-11.13-38.29,0-16.44,4.14-31.01,12.42-43.72,8.28-12.71,20.21-22.63,35.8-29.77,9.14-4.33,19.62-7.6,31.45-9.81,11.82-2.22,23.44-3.33,34.83-3.33l-.48-74.86h25.48c0,2.16-.11,17.31-.32,45.44-.22,28.13-.32,56.64-.32,85.52,0,22.83.08,43.47.24,61.91.16,18.45.29,34.32.4,47.63ZM497.26,208.5v-30c-10.75,0-20.88.92-30.4,2.76-9.51,1.84-17.66,4.32-24.43,7.46-10.75,4.97-19.08,12.08-24.99,21.33-5.91,9.24-8.87,20.08-8.87,32.52,0,11.14,2.85,20.71,8.55,28.71,5.7,8,12.79,14.27,21.29,18.81,7.42,4,15.78,7,25.08,9,9.3,2,19.05,3,29.27,3h4.19c0-.97.05-9.05.16-24.24.11-15.19.16-38.3.16-69.33Z"/>
        </g>
        <g>
          <path class="cls-1" d="M581.07,341.23h8.62v49.13c5.17-8.93,15.52-15.91,28.6-15.91,19.9,0,34.92,17,34.92,38.89s-15.02,38.73-34.92,38.73c-13,0-23.35-6.83-28.6-15.68v14.13h-8.62v-109.29ZM589.26,413.33c0,17,12.21,30.19,28.45,30.19s27.02-13.2,27.02-30.19-11.57-30.35-27.02-30.35c-16.24,0-28.45,13.2-28.45,30.35ZM675.77,376h8.62v11.88c3.88-9.08,11.07-13.43,19.26-13.43,4.38,0,7.47.7,10.13,1.94l-.86,8.69c-3.02-1.24-5.24-2.02-9.7-2.02-10.78,0-18.75,8.69-18.75,25.3v42.15h-8.69v-74.52ZM723.62,413.26c0-21.81,15.66-38.81,36.64-38.81s36.64,17,36.64,38.81-15.66,38.81-36.64,38.81-36.64-17-36.64-38.81ZM760.26,443.53c16.02,0,28.02-13.27,28.02-30.27s-12-30.27-28.02-30.27-28.02,13.27-28.02,30.27,12,30.27,28.02,30.27ZM819.65,376l19.11,66.05,21.27-65.28h9.2l21.27,65.36,19.11-66.13h9.2l-22.7,74.52h-11.21l-20.26-60.08-20.26,60.08h-11.21l-22.7-74.52h9.2ZM939.15,450.51v-74.52h8.62v12.96c5.46-10.09,15.3-14.51,25-14.51,17.39,0,29.39,10.4,29.39,30.58v45.49h-8.62v-42.69c0-16.69-7.83-24.68-22.13-24.68-13.15,0-23.64,10.32-23.64,25.15v42.23h-8.62Z"/>
          <path class="cls-1" d="M63.8,413.42c0-21.89,15.02-38.89,34.92-38.89,13.08,0,23.42,6.99,28.6,15.91v-49.13h8.62v109.29h-8.62v-14.13c-5.25,8.85-15.59,15.68-28.6,15.68-19.9,0-34.92-16.92-34.92-38.73ZM72.28,413.42c0,17,11.57,30.19,27.02,30.19,16.24,0,28.45-13.2,28.45-30.19s-12.21-30.35-28.45-30.35-27.02,13.2-27.02,30.35ZM162.53,421.57v-45.49h8.62v42.69c0,16.69,7.69,24.68,21.77,24.68,12.93,0,23.28-10.32,23.28-25.15v-42.23h8.62v74.52h-8.62v-12.96c-5.39,10.09-15.09,14.51-24.64,14.51-17.17,0-29.03-10.4-29.03-30.58ZM257.09,376.09v-23.91h8.77v23.91h24.29v8.23h-24.29v43.23c0,11.64,5.46,16.22,12.5,16.22,4.17,0,9.2-1.32,12.43-3.1l1.15,7.99c-2.51,1.71-8.26,3.49-14.01,3.49-12.14,0-20.76-7.14-20.76-22.35v-45.49h-13.15v-8.23h13.08ZM314.66,376.09v-23.91h8.77v23.91h24.29v8.23h-24.29v43.23c0,11.64,5.46,16.22,12.5,16.22,4.17,0,9.2-1.32,12.43-3.1l1.15,7.99c-2.51,1.71-8.26,3.49-14.01,3.49-12.14,0-20.76-7.14-20.76-22.35v-45.49h-13.15v-8.23h13.08ZM360.45,413.34c0-21.81,15.66-38.81,36.64-38.81s36.64,17,36.64,38.81-15.66,38.81-36.64,38.81-36.64-17-36.64-38.81ZM397.1,443.62c16.02,0,28.02-13.27,28.02-30.27s-12-30.27-28.02-30.27-28.02,13.27-28.02,30.27,12,30.27,28.02,30.27ZM456.01,450.6v-74.52h8.62v12.96c5.46-10.09,15.3-14.51,25-14.51,17.39,0,29.39,10.4,29.39,30.58v45.49h-8.62v-42.69c0-16.69-7.83-24.68-22.13-24.68-13.15,0-23.64,10.32-23.64,25.15v42.23h-8.62Z"/>
        </g>
      </g>
      <path class="cls-2" d="M552.94,30.45c4.8,0,8.7,3.89,8.7,8.7v445.13c0,4.8-3.89,8.7-8.7,8.7s-8.7-3.89-8.7-8.7V39.15c0-4.8,3.89-8.7,8.7-8.7Z"/>
    </g>
  </g>
</svg>